HIERARCHY
ROOT Hip
{
    OFFSET 0.0 0.0 0.0
    CHANNELS 6 Xposition Yposition Zposition Zrotation Xrotation Yrotation
    JOINT RightHip
    {
        OFFSET -12.397879658577612 0.0 0.0
        CHANNELS 3 Zrotation Xrotation Yrotation
        JOINT RightKnee
        {
            OFFSET 0.0 0.0 -41.68412356299278
            CHANNELS 3 Zrotation Xrotation Yrotation
            JOINT RightAnkle
            {
                OFFSET 0.0 0.0 -41.254535063013016
                CHANNELS 3 Zrotation Xrotation Yrotation
                End Site
                {
                    OFFSET 0.0 -16.501814025205206 0.0
                }
            }
        }
    }
    JOINT LeftHip
    {
        OFFSET 12.397879658577612 0.0 0.0
        CHANNELS 3 Zrotation Xrotation Yrotation
        JOINT LeftKnee
        {
            OFFSET 0.0 0.0 -41.68412356299278
            CHANNELS 3 Zrotation Xrotation Yrotation
            JOINT LeftAnkle
            {
                OFFSET 0.0 0.0 -41.254535063013016
                CHANNELS 3 Zrotation Xrotation Yrotation
                End Site
                {
                    OFFSET 0.0 -16.501814025205206 0.0
                }
            }
        }
    }
    JOINT Spine
    {
        OFFSET 0.0 0.0 22.111258811467728
        CHANNELS 3 Zrotation Xrotation Yrotation
        JOINT Thorax
        {
            OFFSET 0.0 0.0 22.41883209804966
            CHANNELS 3 Zrotation Xrotation Yrotation
            JOINT Neck
            {
                OFFSET 0.0 0.0 2.5273386390425845
                CHANNELS 3 Zrotation Xrotation Yrotation
                JOINT Head
                {
                    OFFSET 0.0 0.0 20.888577429106917
                    CHANNELS 3 Zrotation Xrotation Yrotation
                    End Site
                    {
                        OFFSET -8.355430971642768 0.0 0.0
                    }
                }
            }
            JOINT LeftShoulder
            {
                OFFSET 18.35199567103188 0.0 0.0
                CHANNELS 3 Zrotation Xrotation Yrotation
                JOINT LeftElbow
                {
                    OFFSET 30.26967940150233 0.0 0.0
                    CHANNELS 3 Zrotation Xrotation Yrotation
                    JOINT LeftWrist
                    {
                        OFFSET 26.110860759857275 0.0 0.0
                        CHANNELS 3 Zrotation Xrotation Yrotation
                        End Site
                        {
                            OFFSET 10.44434430394291 0.0 0.0
                        }
                    }
                }
            }
            JOINT RightShoulder
            {
                OFFSET -18.35199567103188 0.0 0.0
                CHANNELS 3 Zrotation Xrotation Yrotation
                JOINT RightElbow
                {
                    OFFSET -30.26967940150233 0.0 0.0
                    CHANNELS 3 Zrotation Xrotation Yrotation
                    JOINT RightWrist
                    {
                        OFFSET -26.110860759857275 0.0 0.0
                        CHANNELS 3 Zrotation Xrotation Yrotation
                        End Site
                        {
                            OFFSET -10.44434430394291 0.0 0.0
                        }
                    }
                }
            }
            JOINT Nose
            {
                OFFSET 0.0 0.0 20.32701588269881
                CHANNELS 3 Zrotation Xrotation Yrotation
                End Site
                {
                    OFFSET -8.130806353079523 0.0 0.0
                }
            }
        }
    }
}
MOTION
Frames: 10
Frame Time: 0.03333333333333333
25.61091863519507 63.96595563296474 17.163073339538098 -19.825129425222915 -6.508611821323376 -16.35731328671033 -0.32686107449075225 3.234945933251615 0.5817116206594204 2.5917349606138185e-15 10.339660803388025 6.651593310517911e-15 0.0 0.0 6.957463365701443e-16 0.403232855766278 11.054555443744352 -0.5855621286106086 -8.304125429816561e-17 6.563079065567547 1.4483171062308608e-15 0.0 0.0 0.0 -3.444443294067851e-15 13.65631771968257 2.0140794295966e-15 -4.704953806620029 -0.10756834676387955 12.293817598263647 -9.814032709865092 1.5105331617159752 2.975770903766593 0.0 0.0 0.0 106.02942141433384 -26.649032714963287 -164.32714775821464 8.710715208243437e-16 1.3304948049705563e-15 113.57466895630652 0.0 0.0 -1.5902773407317584e-15 -103.88924024772598 -28.344555649040924 170.956756981248 -0.0 0.0 -117.02071476413292 -3.180554681463516e-15 6.361109362927032e-15 1.7655625192200634e-31 0.0 0.0 1.1927080055488188e-15
25.602080098096565 63.94388045948281 17.168281610048375 -19.55859254206798 -6.102297283180048 -13.962158031861533 -0.255678913573411 3.764885628460183 0.5165912731047073 2.7553667109780686e-15 8.764143021248634 5.670193915157956e-15 0.0 0.0 9.93923337957349e-16 0.32438780810670453 11.507358535236516 -0.5223213777112439 3.1833872988573116e-15 3.4503267428799 -4.6161368317889694e-17 0.0 0.0 1.4908850069360234e-15 -1.502760686695456e-16 14.041736908085841 1.220225999059989e-15 -4.5662377855454945 -0.11107361514624438 10.271787494716813 -9.846817640256484 1.704727390468334 2.9218501254984406 0.0 0.0 0.0 105.7971395092306 -27.411278566786645 -163.7223710844731 -8.876094676543295e-15 9.653275127297014e-15 113.26896955626721 0.0 0.0 -1.5902773407317584e-15 -104.91366106877206 -28.81290050275601 170.0161591405643 -2.109871243422509e-15 -8.745048198289973e-15 -117.12845583054829 3.1805546814635168e-15 0.0 0.0 -5.517382872562698e-33 -1.5902773407317584e-15 -3.975693351829396e-16
25.462561495959115 63.5954181164713 17.250495511856887 -19.38458257926132 -5.682982175803585 -14.771985758675823 -0.2331889495694962 2.2207474855871436 0.29477292072506733 -6.474638165874774e-15 9.353516950216823 1.1280142820367919e-15 0.0 0.0 2.981770013872047e-16 0.2781134214265131 11.131771444182567 -0.29846970799407135 -2.5090831324438707e-16 3.6093941043558226 7.963238392990792e-15 0.0 0.0 1.987846675914698e-16 -1.0208609574738702e-16 14.293745729994244 8.141651984014847e-16 -4.287787523419628 -0.07059360889753108 10.673278686019227 -9.583996817655986 1.835023664320709 3.187980765340556 0.0 0.0 0.0 105.72605884252226 -27.21247339013369 -163.86917390547094 9.062519129275381e-15 -9.478476904111186e-15 115.50211501541094 0.0 0.0 1.5902773407317588e-15 -105.9282199328319 -30.23591379846885 169.74629732755704 -7.088973608424089e-15 -5.710460471487534e-16 -117.65896397256236 0.0 0.0 0.0 0.0 0.0 3.975693351829396e-16
25.464537398106753 63.60035313933834 17.249331175183066 -18.993477326960075 -5.15517961884773 -14.311441299253003 -0.21923636476409802 -0.04774028100181185 0.19197326911717877 -5.8527769215922804e-15 10.897186396469474 -5.632034856588079e-15 0.0 0.0 -1.0933156717530838e-15 0.25552416232954767 10.972367997157331 -0.19471585872184902 -3.1486001065067065e-15 1.7309390471148198 -2.139316684897296e-15 0.0 0.0 1.5902773407317584e-15 -2.903840597994011e-15 15.885803260815715 -2.204075353689868e-15 -4.829570839484621 -0.10188137478165556 10.071923958681252 -9.566391584510885 2.3401179503117886 3.5140988299771236 0.0 0.0 0.0 107.87758948716747 -31.015334344756067 -161.47097520295262 1.601940456274022e-15 2.7476744451139166e-15 119.51418956302791 0.0 0.0 0.0 -107.17007160469676 -31.5707446875884 167.50604010036608 -6.810998056181937e-16 -1.1447408794916002e-14 -119.42982406617288 3.1805546814635168e-15 0.0 0.0 0.0 0.0 0.0
25.459546784358178 63.58788855803342 17.252271986102922 -18.94448342842766 -4.73272602167259 -14.226538589670342 -0.25959550442199875 -2.78041466159338 0.015552680355262099 7.278354369272549e-17 13.62416289232784 -6.09288361695236e-16 0.0 0.0 -1.4908850069360234e-15 0.2627375222545877 9.916960083518243 -0.01575031788047751 3.1685785147674247e-15 2.8759436735518644 5.170022639238386e-16 0.0 0.0 0.0 2.9952152967263286e-17 16.604300791115854 -2.0526061417036962e-16 -6.107874901141251 -0.2957521282557326 9.723645505477263 -10.032104093814782 2.5892837449933146 3.779650431928002 0.0 0.0 0.0 109.11239356976466 -31.03304863804355 -160.44762738947236 4.590067476849156e-15 -1.7396579525151354e-14 119.56116247495402 0.0 0.0 -7.951386703658792e-16 -106.5322782508904 -31.91059228797098 166.4275085820833 -1.0213405218611878e-14 5.214730952174339e-15 -121.47576776074204 -3.1805546814635168e-15 -8.827812596100317e-32 3.1805546814635168e-15 3.1805546814635164e-15 1.9878466759146975e-16 -1.1927080055488186e-15
25.47807438379508 63.634163180995884 17.241354257445117 -18.76854791356067 -2.772526386504451 -10.333600256940027 -0.332970961400198 -5.82052607788121 -0.42090519589017106 3.2161464036431063e-15 15.66324733315819 -4.105334886028943e-17 5.517382872562698e-33 3.9756933518293955e-16 -1.5902773407317582e-15 0.23897816440679925 7.03910213540258 0.42261970426003115 -3.163166335153024e-15 1.6268077013218643 -1.2473214107326588e-15 1.2414111463266072e-32 -7.951386703658792e-16 1.7890620083232284e-15 6.434405640711459e-15 17.543202153723946 1.2852554071356521e-17 -5.140683423074471 -0.2050204953788092 7.175709728285199 -9.859169207322035 3.3135751895367984 3.591425463318506 0.0 0.0 0.0 110.56041966214234 -33.26970850529576 -159.2781468417696 -2.127965164890876e-15 -1.6995107490940334e-14 122.1234034454843 0.0 0.0 2.782985346280577e-15 -107.62232899931305 -31.148004208521787 164.5771245401451 7.105364153261907e-15 3.056806477978956e-16 -121.94307970654152 -6.3611093629270335e-15 0.0 0.0 0.0 0.0 0.0
25.284306122145335 63.15020662307954 17.35553576867603 -19.608693135566167 0.6304928032710961 -6.981231811042696 -0.446604821015582 -19.873989545351378 -0.9010180060727389 3.597342003426517e-16 30.215399430634008 -1.3325222062963669e-15 -8.276074308844047e-33 -1.5902773407317584e-15 -5.963540027744094e-16 0.1591267411298727 -1.241382745942946 0.8501391807904978 3.148920802532841e-15 6.102156343285124 6.781911104417868e-16 0.0 0.0 4.969616689786745e-16 -1.7434168842660167e-16 15.98809400725314 1.2414414611907148e-15 -2.81130617094557 -0.15524989165965214 5.021093208997414 -9.645459932958135 3.726514828519609 3.470767108245092 0.0 0.0 0.0 112.06245657528896 -35.18940330506396 -157.96592475103745 -4.07771378569033e-15 5.826825095271738e-15 123.10010091660061 0.0 0.0 0.0 -109.52149744064887 -31.454111323644014 163.12164977297286 7.406542270519745e-15 -1.4072715929751848e-14 -124.48387734059037 0.0 0.0 0.0 0.0 0.0 -3.975693351829396e-16
25.409179675177597 63.46209141982462 17.281951731349164 -18.94058498587735 4.024904180545609 -7.370368404215271 -0.5582899574793344 -30.38944532900665 -1.0113610595016669 -1.029895621201679e-15 39.13284033174006 2.8976557720480188e-15 0.0 0.0 2.385416011097637e-15 0.15590173108020736 -7.10716018190412 0.8819318858338601 -3.21118643947515e-15 8.028951583341671 3.250001219774578e-16 0.0 0.0 -9.93923337957349e-17 -5.803786308528353e-15 15.761567786746095 -4.464491692994419e-15 -4.047251611985147 -0.210012817742203 5.150281075476487 -9.802806861133137 4.452876473706289 3.951673670653586 0.0 0.0 0.0 113.5089626148272 -35.26476390500966 -155.6908403243357 7.110628467500808e-15 -1.363935704664092e-16 124.67211224813795 0.0 0.0 -5.963540027744094e-16 -110.33199087205011 -31.638065835998148 160.51302383485586 -1.9885402549556108e-14 1.142799307379214e-14 -127.15145967228725 0.0 0.0 0.0 0.0 0.0 0.0
25.05341990021731 62.57354406604752 17.491589720534208 -19.37027311394933 9.116433464088582 -4.518620393330865 -1.953590561645423 -51.330598418432146 -2.8579719445082974 3.4488453268560817e-15 61.75326946616298 -5.7679372567369385e-15 0.0 0.0 -3.975693351829396e-16 0.9379638933056968 -34.18051713596583 2.166566156084106 -7.512728007821159e-15 36.46728617003623 2.4749484359172875e-15 0.0 0.0 -3.975693351829396e-16 2.7860536564168006e-15 13.724057888502434 3.468882583576711e-15 -2.8926862597506333 -0.12806460890996013 2.719652646311532 -9.792455643949001 5.111611631298463 4.29521991424305 0.0 0.0 0.0 116.87450208728865 -35.89471626359906 -151.14671585289582 0.0 -0.0 126.79868390625312 0.0 0.0 -1.987846675914698e-16 -115.33963504960678 -34.314290778247866 154.52319371677945 -4.494121566250376e-15 -5.512033359538088e-15 -131.5128319183864 0.0 0.0 0.0 0.0 0.0 -7.951386703658792e-16
25.105544328723063 62.70373029359699 17.46087444256163 -18.522571986043214 9.771717753806987 -4.304659076449876 -2.035216444718378 -52.55931276684644 -2.9550943029402297 -4.101618581921408e-15 62.49506089137105 6.285647904990495e-16 0.0 0.0 3.975693351829396e-16 1.0520097549048832 -37.12647821286497 2.2606842651379937 3.1734851111771713e-15 38.918620137044314 5.653656002020319e-16 0.0 0.0 0.0 6.4041862849224616e-15 13.78566223190249 2.67488036900844e-17 -3.7099755604349096 -0.0958548749338689 2.1385388141430344 -9.80946898293869 5.279418416501174 4.412996292039566 0.0 0.0 0.0 118.35388298578918 -36.79193599905578 -149.7532364687352 1.2794218030808609e-14 -2.877283852938954e-15 126.57881089035719 0.0 0.0 2.3854160110976376e-15 -114.95668937314241 -32.97795719889613 154.22988940583934 2.1315537458377297e-14 -9.298529671896544e-16 -131.86558628739877 0.0 0.0 0.0 3.1805546814635168e-15 2.2069531490250793e-32 7.951386703658792e-16
